<svg xmlns="http://www.w3.org/2000/svg" width="1440" height="760" viewBox="0 0 1440 760"><defs><linearGradient id="g" x1="0" y1="0" x2="1" y2="1"><stop stop-color="#efe3d1"/><stop offset=".5" stop-color="#cfc2aa"/><stop offset="1" stop-color="#7d8f72"/></linearGradient><linearGradient id="o" x1="0" y1="0" x2="1" y2="0"><stop stop-color="#fff8ee" stop-opacity=".9"/><stop offset=".55" stop-color="#fff8ee" stop-opacity=".5"/><stop offset="1" stop-color="#fff8ee" stop-opacity=".05"/></linearGradient></defs><rect width="1440" height="760" fill="url(#g)"/><circle cx="1138" cy="138" r="90" fill="#ecd19f" opacity=".7"/><path d="M0 470 C220 340 390 410 570 320 C760 224 940 375 1148 292 C1290 236 1378 268 1440 238 V760 H0Z" fill="#7D8F72" opacity=".55"/><path d="M0 610 C260 530 470 575 700 488 C870 425 1010 552 1220 472 C1320 435 1395 448 1440 424 V760 H0Z" fill="#4B2E4F" opacity=".55"/><g opacity=".85"><rect x="716" y="315" width="176" height="210" rx="4" fill="#7b503d"/><path d="M686 318 L805 212 L924 318 Z" fill="#4B2E4F"/><path d="M716 303 L805 234 L894 303 Z" fill="#d7aa74"/><path d="M765 525 C766 456 842 456 844 525 Z" fill="#2b2030"/><rect x="748" y="360" width="34" height="52" rx="17" fill="#f6ead8"/><rect x="820" y="360" width="34" height="52" rx="17" fill="#f6ead8"/></g><rect width="1440" height="760" fill="url(#o)"/></svg>